<?xml version="1.0" encoding="UTF-8" standalone="no"?>
<svg
   viewBox="0 0 640 640"
   version="1.1"
   id="svg1"
   sodipodi:docname="mode-departure-now.svg"
   inkscape:version="1.4.4 (unknown)"
   xmlns:inkscape="http://www.inkscape.org/namespaces/inkscape"
   xmlns:sodipodi="http://sodipodi.sourceforge.net/DTD/sodipodi-0.dtd"
   xmlns="http://www.w3.org/2000/svg"
   xmlns:svg="http://www.w3.org/2000/svg">
  <defs
     id="defs1" />
  <sodipodi:namedview
     id="namedview1"
     pagecolor="#ffffff"
     bordercolor="#666666"
     borderopacity="1.0"
     inkscape:showpageshadow="2"
     inkscape:pageopacity="0.0"
     inkscape:pagecheckerboard="0"
     inkscape:deskcolor="#d1d1d1"
     inkscape:zoom="1.25"
     inkscape:cx="319.6"
     inkscape:cy="320"
     inkscape:window-width="1920"
     inkscape:window-height="1008"
     inkscape:window-x="0"
     inkscape:window-y="0"
     inkscape:window-maximized="1"
     inkscape:current-layer="svg1" />
  <!--!Font Awesome Free 7.2.0 by @fontawesome - https://fontawesome.com License - https://fontawesome.com/license/free Copyright 2026 Fonticons, Inc.-->
  <path
     id="path1"
     d="m 158.55859,70.007812 c -15.91781,0.07659 -31.79438,4.532592 -45.41406,12.775391 -0.73137,0.452378 -1.70872,1.054861 -2.51939,1.587229 -15.153177,9.846141 -27.247438,24.361428 -34.035933,41.121938 -6.113187,14.94876 -8.029553,31.56945 -5.509785,47.52011 0.08807,0.62592 0.163463,1.03538 0.283216,1.71148 1.228754,6.98525 3.287132,13.83341 6.176424,20.3112 1.214659,2.22307 3.852515,3.40777 6.331992,3.08839 3.472273,-0.29684 6.519298,-2.57612 8.303999,-5.49454 3.861976,-5.49906 7.938427,-10.84373 12.124417,-16.09817 2.33144,-3.36583 2.63248,-7.69206 2.034,-11.63396 -1.71689,-14.6498 3.13148,-29.89986 12.9202,-40.92315 8.92258,-10.17408 21.83365,-16.78697 35.3407,-17.8772 7.32089,-0.63404 14.74055,0.33324 21.72085,2.59617 3.76965,1.02514 8.04908,0.86401 11.40553,-1.29973 5.98352,-3.30592 12.1935,-6.17514 18.34101,-9.152724 3.23996,-1.902153 5.68144,-5.702324 5.01636,-9.550793 -0.43556,-2.154378 -2.1816,-3.725336 -4.04077,-4.725783 -14.35648,-9.203876 -31.42491,-14.123289 -48.47876,-13.955858 z m 320.61133,0.109376 c -2.34533,0.05543 -4.60658,0.174519 -6.97617,0.403073 -11.62821,1.113807 -23.17368,4.604142 -33.51992,10.184817 -2.2644,1.228499 -4.35389,2.4762 -6.51113,3.907943 -1.5323,0.840156 -2.77467,2.24216 -3.16773,3.973142 -0.74762,3.021163 0.78481,6.166206 2.94448,8.232196 1.44166,1.446994 3.33396,2.250072 5.17497,3.048591 5.85736,2.65443 11.52529,5.70248 17.22608,8.667 3.74081,1.50663 7.93125,0.83595 11.64316,-0.40621 2.21426,-0.36628 4.35717,-1.08309 6.59011,-1.3614 13.59964,-2.20337 28.02162,1.1401 39.19837,9.2159 10.83878,7.72305 18.67388,19.60857 21.25805,32.68615 1.24299,6.01725 1.33282,12.23807 0.51965,18.31836 -0.30981,3.88975 0.55421,8.05524 3.2361,11.01401 4.35307,5.36002 8.38047,10.97385 12.41632,16.57142 2.41935,2.83009 6.55552,4.54013 10.1927,3.22888 2.12197,-0.80036 3.39599,-2.87792 4.05262,-4.94882 2.37621,-5.81996 4.11197,-11.89719 5.20672,-18.08662 0.0691,-0.40541 0.19441,-1.1848 0.28504,-1.73336 1.30724,-8.39013 1.38869,-16.9635 0.30871,-25.38382 -0.18387,-1.36328 -0.41884,-2.95691 -0.68809,-4.39917 -0.35849,-1.97176 -0.79744,-3.97948 -1.26827,-5.8349 -3.31959,-13.17354 -9.70595,-25.55866 -18.51825,-35.89875 -0.29101,-0.33967 -0.83146,-0.95702 -1.21875,-1.40234 -5.0471,-5.674076 -10.8184,-10.699685 -17.11914,-14.937499 -0.48795,-0.30943 -1.24116,-0.824699 -1.84222,-1.200129 -13.99858,-8.965859 -30.5738,-13.78294 -47.18778,-13.86835 -0.74518,-0.01346 -1.49042,0.0069 -2.23563,0.0099 z M 317.22461,134.01758 c -6.13583,0.0907 -12.37496,0.41555 -18.54983,1.01609 -13.90939,1.35612 -27.97033,4.08091 -41.37583,8.12645 -3.05863,0.91687 -6.15751,1.91723 -9.09147,2.94767 -30.13091,10.49475 -57.87701,27.73856 -80.65508,50.07856 -5.03159,4.92643 -9.91035,10.19463 -14.3942,15.51677 -4.38782,5.21279 -8.52927,10.63109 -12.41992,16.22461 -0.95212,1.38744 -2.02342,2.95559 -2.99217,4.43107 -2.13697,3.24477 -4.24794,6.65647 -6.16603,9.94393 -1.64955,2.83596 -3.27807,5.77303 -4.76125,8.6048 -4.76455,9.06044 -8.90887,18.56099 -12.30711,28.14911 -7.52838,21.16355 -11.67353,43.40896 -12.39844,65.89453 -0.43251,14.03202 0.44015,28.27995 2.7214,42.20099 2.92037,18.11816 8.23447,35.97047 15.66917,52.80865 3.21437,7.29681 6.94222,14.6145 11.00982,21.59583 4.03171,6.91777 8.4474,13.63802 13.23158,20.11044 2.83969,3.89068 5.87282,7.59215 8.88756,11.3837 -15.72328,15.73592 -31.48555,31.43415 -47.16039,47.21769 -4.76554,5.29468 -5.71449,13.5449 -2.45875,19.85262 2.3682,4.70408 6.84798,8.36308 12.02149,9.48633 0.3857,0.0939 1.13422,0.23044 1.66992,0.29883 5.64403,0.72696 11.59361,-1.35447 15.45105,-5.56312 15.31858,-15.28208 30.60336,-30.59814 45.90832,-45.89391 5.28053,4.34702 10.74291,8.56838 16.3125,12.44336 8.15441,5.69923 16.87657,10.92893 25.81296,15.47108 5.28615,2.69189 10.93812,5.28366 16.55852,7.56704 5.00407,2.04577 10.08952,3.8904 15.23204,5.55758 1.76144,0.56435 3.72247,1.17912 5.5753,1.71728 4.18281,1.23115 8.45208,2.3414 12.63452,3.29984 8.16738,1.86635 16.49168,3.26824 24.76603,4.17412 5.70428,0.62848 11.34359,1.02209 17.09251,1.20915 3.83828,0.11639 7.83129,0.14322 11.72911,0.0521 3.10706,-0.0616 6.36023,-0.20189 9.4565,-0.40609 4.93163,-0.31385 9.95576,-0.8207 14.789,-1.45851 4.39683,-0.59106 8.83482,-1.3108 13.11701,-2.15761 9.67393,-1.89734 19.28159,-4.47132 28.66522,-7.69023 15.2588,-5.23622 30.10335,-12.2644 43.87875,-20.80244 7.57904,-4.70527 14.90368,-9.83594 21.83316,-15.45519 1.38906,-1.32222 2.71005,-2.71452 4.08398,-4.05273 15.88707,15.87162 31.73378,31.78488 47.66691,47.60961 5.29468,4.76554 13.5449,5.71449 19.85262,2.45875 4.70408,-2.3682 8.36308,-6.84798 9.48633,-12.02149 0.0939,-0.3857 0.23044,-1.13422 0.29883,-1.66992 0.72696,-5.64403 -1.35447,-11.59361 -5.56312,-15.45105 -15.28208,-15.31858 -30.59814,-30.60336 -45.89391,-45.90832 4.34702,-5.28053 8.56838,-10.74291 12.44336,-16.3125 5.69923,-8.15441 10.92893,-16.87657 15.47108,-25.81296 2.69189,-5.28615 5.28366,-10.93812 7.56704,-16.55852 2.04577,-5.00407 3.8904,-10.08952 5.55758,-15.23204 0.56435,-1.76144 1.17912,-3.72247 1.71728,-5.5753 1.23115,-4.18281 2.3414,-8.45208 3.29984,-12.63452 1.61909,-7.07465 2.89242,-14.32618 3.78757,-21.46791 0.44504,-3.51719 0.78955,-7.10208 1.07422,-10.67383 0.0641,-0.9948 0.15456,-2.2615 0.2288,-3.36078 0.0818,-1.56104 0.17359,-3.09294 0.22323,-4.58029 0.45172,-11.41921 0.0124,-22.87277 -1.30164,-34.22495 -0.13964,-1.13837 -0.28861,-2.44965 -0.44629,-3.5666 -0.54654,-4.0985 -1.18003,-8.04249 -1.96503,-12.12411 -0.82555,-4.34605 -1.79964,-8.66317 -2.89142,-12.94991 -0.26425,-1.00368 -0.58866,-2.27708 -0.86805,-3.27672 -7.03357,-25.86132 -18.92381,-50.38487 -34.86476,-71.92897 -7.17672,-9.71704 -15.18904,-18.87259 -23.82856,-27.24891 -5.70614,-5.52159 -11.63699,-10.67865 -17.9103,-15.56098 -17.2103,-13.40817 -36.59046,-24.27604 -57.06968,-31.9744 -12.95994,-4.8773 -26.56476,-8.53781 -40.29253,-10.84143 -4.02246,-0.6824 -8.04867,-1.23446 -12.14491,-1.69846 -3.29301,-0.3691 -6.61062,-0.64364 -9.96628,-0.864 -3.0492,-0.19532 -6.31216,-0.34703 -9.45052,-0.41254 -2.5314,-0.0545 -5.06285,-0.0484 -7.59464,-0.0373 z M 319.99805,170 c 29.84438,-0.0322 59.68516,7.38453 85.96648,21.54645 28.67311,15.38186 53.10697,38.57534 69.90445,66.44848 13.34583,22.08559 21.93535,47.03996 24.88603,72.68161 3.66178,31.21522 -0.80924,63.38618 -13.13048,92.31867 -12.68934,29.98393 -33.61728,56.41285 -59.86114,75.67817 -23.34385,17.19526 -50.85327,28.72321 -79.5181,33.13904 -33.33119,5.21142 -68.1242,1.06242 -99.18222,-12.16174 -30.30207,-12.8142 -56.97824,-34.03941 -76.30507,-60.66192 -16.1914,-22.23697 -27.27618,-48.18505 -32.004,-75.29046 -5.89704,-33.58431 -2.27822,-68.84016 10.66805,-100.4085 12.309,-30.22799 32.95272,-56.98845 59.01642,-76.62628 23.21682,-17.54111 50.69459,-29.43116 79.4149,-34.16883 9.95709,-1.6638 20.05049,-2.48342 30.14468,-2.49469 z m -0.46094,60.00781 c -7.25874,0.12068 -14.16567,5.13801 -16.4358,12.04987 -1.00374,2.80611 -1.10271,5.8191 -1.00174,8.76654 0.007,33.98903 -0.0256,67.97871 0.0313,101.96734 0.1531,5.027 2.63641,9.82559 6.37811,13.13348 15.92153,15.90927 31.80864,31.85426 47.77513,47.71774 5.3523,4.80136 13.70454,5.71442 20.02918,2.34235 5.32391,-2.72791 9.18349,-8.22131 9.65874,-14.21957 0.51904,-5.49878 -1.62464,-11.1882 -5.71735,-14.91413 C 366.17929,372.75347 352.08528,358.67311 338,344.58398 c -0.007,-32.86433 0.0141,-65.73017 -0.0106,-98.59357 -0.6927,-7.09063 -6.05276,-13.4751 -12.95203,-15.30725 -1.7873,-0.49863 -3.64542,-0.7248 -5.50026,-0.67535 z" />
</svg>
