<?xml version="1.0" encoding="UTF-8" standalone="no"?>
<svg
   viewBox="0 0 640 640"
   version="1.1"
   id="svg1"
   sodipodi:docname="mode-arrival.svg"
   inkscape:version="1.4.4 (unknown)"
   xmlns:inkscape="http://www.inkscape.org/namespaces/inkscape"
   xmlns:sodipodi="http://sodipodi.sourceforge.net/DTD/sodipodi-0.dtd"
   xmlns="http://www.w3.org/2000/svg"
   xmlns:svg="http://www.w3.org/2000/svg">
  <defs
     id="defs1" />
  <sodipodi:namedview
     id="namedview1"
     pagecolor="#ffffff"
     bordercolor="#666666"
     borderopacity="1.0"
     inkscape:showpageshadow="2"
     inkscape:pageopacity="0.0"
     inkscape:pagecheckerboard="0"
     inkscape:deskcolor="#d1d1d1"
     inkscape:zoom="1.25"
     inkscape:cx="319.6"
     inkscape:cy="320"
     inkscape:window-width="1920"
     inkscape:window-height="1008"
     inkscape:window-x="0"
     inkscape:window-y="0"
     inkscape:window-maximized="1"
     inkscape:current-layer="svg1" />
  <!--!Font Awesome Free 7.2.0 by @fontawesome - https://fontawesome.com License - https://fontawesome.com/license/free Copyright 2026 Fonticons, Inc.-->
  <path
     id="path1"
     d="M 231.39453 45.572266 C 221.46875 45.057007 213.30078 53.775391 214.80078 63.900391 L 238.80078 225.5 L 133.80078 207 L 100 145.19922 C 96.5 138.69922 90.199609 134.2 83.099609 133 L 66 130 C 56.2 128.3 47.199219 135.90078 47.199219 145.80078 L 47.800781 252.09961 C 48.000781 282.99961 70.199216 309.40078 100.69922 314.80078 L 114.19922 317.19922 L 531.80078 390.80078 C 562.30078 396.20078 591.29922 375.80039 596.69922 345.40039 C 602.09922 315.00039 581.70078 285.9 551.30078 280.5 L 418.59961 257.09961 L 297.90039 67.699219 C 293.10039 60.099219 285.3 54.900391 276.5 53.400391 L 233.40039 45.800781 C 232.72539 45.682031 232.05625 45.606616 231.39453 45.572266 z M 254.5 86.080078 C 259.13433 86.862906 263.75096 87.753012 268.39453 88.476562 C 311.19509 155.57696 353.9846 222.6833 396.76758 289.79492 C 445.83499 298.44547 494.90581 307.07241 543.96289 315.78125 C 549.88918 316.48084 555.32809 320.05778 558.49805 325.08594 C 561.84003 330.19128 562.39666 336.85855 560.30859 342.54883 C 558.01471 349.15363 551.89417 354.11341 545.05273 355.32617 C 541.47519 356.07688 537.86282 355.19688 534.33203 354.61914 C 499.5687 348.5352 464.81473 342.40034 430.05469 336.29688 C 326.45894 318.06023 222.84659 299.79409 119.24805 281.52539 C 114.39912 280.56738 109.58244 280.05172 104.79297 278.81445 C 93.620211 276.16551 84.895266 265.77393 83.990234 254.36328 C 83.689101 232.91988 83.603613 211.47277 83.466797 190.02734 C 92.510265 206.48835 101.51034 222.9732 110.52734 239.44922 C 167.60562 249.50564 224.68377 259.56278 281.76172 269.62109 C 280.80951 263.21416 279.85618 256.80734 278.9043 250.40039 C 270.76953 195.62695 262.63477 140.85352 254.5 86.080078 z M 256 384 C 238.3 384 224 398.3 224 416 C 224 433.7 238.3 448 256 448 C 273.7 448 288 433.7 288 416 C 288 398.3 273.7 384 256 384 z M 355.19922 400.69922 C 337.49922 400.69922 323.19922 414.99922 323.19922 432.69922 C 323.19922 450.39922 337.49922 464.69922 355.19922 464.69922 C 372.89922 464.69922 387.19922 450.39922 387.19922 432.69922 C 387.19922 414.99922 372.89922 400.69922 355.19922 400.69922 z M 255.71094 410.00781 C 256.67818 409.96561 257.65227 410.15352 258.53125 410.56055 C 261.19449 411.71512 262.60676 414.95443 261.75781 417.70898 C 261.04802 420.34745 258.34688 422.17701 255.64258 421.98633 C 252.90618 421.92723 250.52657 419.68959 250.09961 417.02148 C 249.32587 413.62044 252.27692 410.07601 255.71094 410.00781 z M 354.93555 426.70898 C 356.16577 426.66152 357.40909 426.99327 358.44727 427.65625 C 360.97011 429.20249 361.93802 432.72291 360.58008 435.34766 C 359.44478 437.84538 356.44782 439.19855 353.81055 438.52734 C 351.4224 438.05636 349.59775 435.93074 349.27148 433.55273 C 348.60493 430.18104 351.55401 426.76818 354.93555 426.70898 z M 64 512 C 46.3 512 32 526.3 32 544 C 32 561.7 46.3 576 64 576 L 576 576 C 593.7 576 608 561.7 608 544 C 608 526.3 593.7 512 576 512 L 64 512 z M 573.45898 537.99609 C 574.42861 537.99609 575.40102 537.95734 576.36914 538.02734 C 579.05616 538.09529 581.43038 540.2425 581.88281 542.87109 C 582.70897 546.19882 579.93813 549.74853 576.56836 549.9668 C 408.00898 549.9814 239.45 549.98738 70.890625 549.98438 C 68.511894 549.90858 66.130109 550.09285 63.753906 549.96875 C 61.008379 549.96783 58.561743 547.76002 58.105469 545.08594 C 57.31374 541.75505 60.107835 538.23975 63.46875 538.02539 C 233.46549 538.01559 403.46224 538.00609 573.45898 537.99609 z " />
</svg>
