<?xml version="1.0" encoding="UTF-8" standalone="no"?>
<svg
   viewBox="0 0 640 640"
   version="1.1"
   id="svg1"
   sodipodi:docname="mode-departure.svg"
   inkscape:version="1.4.4 (unknown)"
   xmlns:inkscape="http://www.inkscape.org/namespaces/inkscape"
   xmlns:sodipodi="http://sodipodi.sourceforge.net/DTD/sodipodi-0.dtd"
   xmlns="http://www.w3.org/2000/svg"
   xmlns:svg="http://www.w3.org/2000/svg">
  <defs
     id="defs1" />
  <sodipodi:namedview
     id="namedview1"
     pagecolor="#ffffff"
     bordercolor="#666666"
     borderopacity="1.0"
     inkscape:showpageshadow="2"
     inkscape:pageopacity="0.0"
     inkscape:pagecheckerboard="0"
     inkscape:deskcolor="#d1d1d1"
     inkscape:zoom="1.25"
     inkscape:cx="319.6"
     inkscape:cy="320"
     inkscape:window-width="1920"
     inkscape:window-height="1008"
     inkscape:window-x="0"
     inkscape:window-y="0"
     inkscape:window-maximized="1"
     inkscape:current-layer="svg1" />
  <!--!Font Awesome Free 7.2.0 by @fontawesome - https://fontawesome.com License - https://fontawesome.com/license/free Copyright 2026 Fonticons, Inc.-->
  <path
     id="path1"
     d="M 188.71289 100.59375 C 185.42578 100.70859 182.15 101.3375 179 102.5 L 137.90039 117.5 C 127.60039 121.2 124.10078 133.9 130.80078 142.5 L 232.30078 270.40039 L 132.09961 306.80078 L 72 270.19922 C 65.8 266.39922 58.200781 265.69961 51.300781 268.09961 L 35 274.09961 C 25.6 277.49961 21.599219 288.59922 26.699219 297.19922 L 80.300781 389 C 95.900781 415.7 128.40039 427.40078 157.40039 416.80078 L 170.30078 412.09961 L 568.69922 267.09961 C 597.79922 256.49961 612.69922 224.40078 602.19922 195.30078 C 591.69922 166.20078 559.50039 151.30078 530.40039 161.80078 L 404 207.90039 L 204.69922 104.19922 C 199.69922 101.63672 194.19141 100.40234 188.71289 100.59375 z M 189.72461 134.80664 C 257.59311 170.07732 325.44869 205.35382 393.30273 240.65234 C 396.92365 242.96116 401.38136 244.18257 405.6543 243.34961 C 407.86909 242.83269 409.95968 241.88422 412.10742 241.14648 C 449.82031 227.36647 487.53835 213.59991 525.27148 199.875 C 530.69296 197.87572 536.1519 195.97429 541.54883 193.91211 C 541.97843 193.74288 542.65863 193.52371 542.92773 193.44141 C 548.18839 191.84534 554.03493 192.24944 559.01562 194.58203 C 565.96042 197.6633 570.72888 204.76748 571.44141 212.26953 C 572.51797 221.48154 566.91877 230.98201 558.39453 234.5918 C 425.36047 283.05254 292.3221 331.50075 159.2793 379.9375 C 153.79952 381.78017 148.50557 384.17588 142.91406 385.67969 C 131.17808 388.96643 117.72306 383.86357 110.95508 373.76758 C 98.675753 353.08911 86.581862 332.30077 74.443359 311.53906 C 92.425991 322.44794 110.3876 333.39277 128.35938 344.32031 C 156.9196 333.94636 185.48057 323.57454 214.04102 313.20117 C 229.66794 307.55028 245.26215 301.81209 260.90039 296.19336 C 264.92739 294.8482 269.08029 293.16267 271.92773 289.875 C 278.07921 283.13121 277.93732 271.65685 271.53516 265.125 C 238.65975 223.73145 205.81505 182.3118 172.95117 140.9082 C 175.0869 140.12597 177.2266 139.35629 179.36523 138.58203 C 182.77433 137.52871 186.00762 135.98927 189.4043 134.90234 L 189.72461 134.80664 z M 64.199219 512 C 46.499219 512 32.199219 526.3 32.199219 544 C 32.199219 561.7 46.499219 576 64.199219 576 L 576.19922 576 C 593.89922 576 608.19922 561.7 608.19922 544 C 608.19922 526.3 593.89922 512 576.19922 512 L 64.199219 512 z M 575.46094 536 C 576.30691 535.9649 577.15963 536.02456 577.98438 536.2207 C 581.29181 536.83851 583.8162 539.86316 584.16406 543.15625 C 584.78675 547.45301 581.1575 551.71759 576.86328 551.96484 C 407.96901 551.97594 239.07396 551.98695 70.179688 551.99805 C 67.505966 551.86974 64.784501 552.3217 62.150391 551.70703 C 58.779053 550.95 56.290261 547.71193 56.207031 544.29297 C 55.895411 540.14868 59.456213 536.26211 63.566406 536.02734 C 234.19792 536.01824 404.82943 536.009 575.46094 536 z " />
</svg>
