<?xml version="1.0" encoding="UTF-8" standalone="no"?>
<svg
   viewBox="0 0 640 640"
   version="1.1"
   id="svg1"
   sodipodi:docname="cable-car-solid-full Kopie.svg"
   inkscape:version="1.4.4 (unknown)"
   xmlns:inkscape="http://www.inkscape.org/namespaces/inkscape"
   xmlns:sodipodi="http://sodipodi.sourceforge.net/DTD/sodipodi-0.dtd"
   xmlns="http://www.w3.org/2000/svg"
   xmlns:svg="http://www.w3.org/2000/svg">
  <defs
     id="defs1">
    <inkscape:path-effect
       effect="bspline"
       id="path-effect3"
       is_visible="true"
       lpeversion="1.3"
       weight="33.333333"
       steps="2"
       helper_size="0"
       apply_no_weight="true"
       apply_with_weight="true"
       only_selected="false"
       uniform="false" />
  </defs>
  <sodipodi:namedview
     id="namedview1"
     pagecolor="#ffffff"
     bordercolor="#666666"
     borderopacity="1.0"
     inkscape:showpageshadow="2"
     inkscape:pageopacity="0.0"
     inkscape:pagecheckerboard="0"
     inkscape:deskcolor="#d1d1d1"
     inkscape:zoom="1.25"
     inkscape:cx="320"
     inkscape:cy="320"
     inkscape:window-width="1920"
     inkscape:window-height="1008"
     inkscape:window-x="0"
     inkscape:window-y="0"
     inkscape:window-maximized="1"
     inkscape:current-layer="svg1" />
  <!--!Font Awesome Free 7.2.0 by @fontawesome - https://fontawesome.com License - https://fontawesome.com/license/free Copyright 2026 Fonticons, Inc.-->
  <path
     d="m 72.4,298.96095 c 0,-35.3 28.7,-77.735 64,-94.62857 l 136,-65.08572 48,-22.97142 136,-65.085715 c 35.3,-16.893571 64,-1.928571 64,33.371429 V 244.56095 c 0,35.3 -28.7,77.735 -64,94.62857 l -320,153.14286 c -35.3,16.89357 -64,1.92857 -64,-33.37143 z m 80,-38.28571 c -8.8,4.21142 -16,14.85714 -16,23.65714 v 64 c 0,8.8 7.2,12.55428 16,8.34286 l 56,-26.8 v -96 z m 184,7.94285 v -96 l -80,38.28572 v 96 z m 48,-22.97143 56,-26.8 c 8.8,-4.21142 16,-14.85714 16,-23.65714 v -64 c 0,-8.8 -7.2,-12.55428 -16,-8.34286 l -56,26.8 z"
     id="path1"
     sodipodi:nodetypes="ssccsssssssssssccsccccccsssscc" />
  <path
     style="fill:#000000;fill-opacity:1;stroke:#000000;stroke-width:48;stroke-linecap:round;stroke-linejoin:round;stroke-dasharray:none;stroke-opacity:1;paint-order:stroke fill markers"
     d="M 82.4,600 C 231.03301,528.74124 380.31651,457.17062 529.6,385.6"
     id="path3"
     inkscape:path-effect="#path-effect3"
     inkscape:original-d="M 82.4,600 C 230.93333,528.53333 380.26667,457.06667 529.6,385.6"
     transform="translate(14,-28.239046)" />
</svg>
