<?xml version="1.0" encoding="UTF-8" standalone="no"?>
<svg
   viewBox="0 0 640 640"
   version="1.1"
   id="svg1"
   sodipodi:docname="ship-solid-full.svg"
   inkscape:version="1.4.4 (unknown)"
   xmlns:inkscape="http://www.inkscape.org/namespaces/inkscape"
   xmlns:sodipodi="http://sodipodi.sourceforge.net/DTD/sodipodi-0.dtd"
   xmlns="http://www.w3.org/2000/svg"
   xmlns:svg="http://www.w3.org/2000/svg">
  <defs
     id="defs1">
    <inkscape:path-effect
       effect="bspline"
       id="path-effect5"
       is_visible="true"
       lpeversion="1.3"
       weight="33.333333"
       steps="2"
       helper_size="0"
       apply_no_weight="true"
       apply_with_weight="true"
       only_selected="false"
       uniform="false" />
    <inkscape:path-effect
       effect="bspline"
       id="path-effect4"
       is_visible="true"
       lpeversion="1.3"
       weight="33.333333"
       steps="2"
       helper_size="0"
       apply_no_weight="true"
       apply_with_weight="true"
       only_selected="false"
       uniform="false" />
    <inkscape:path-effect
       effect="bspline"
       id="path-effect3"
       is_visible="true"
       lpeversion="1.3"
       weight="33.333333"
       steps="2"
       helper_size="0"
       apply_no_weight="true"
       apply_with_weight="true"
       only_selected="false"
       uniform="false" />
  </defs>
  <sodipodi:namedview
     id="namedview1"
     pagecolor="#ffffff"
     bordercolor="#666666"
     borderopacity="1.0"
     inkscape:showpageshadow="2"
     inkscape:pageopacity="0.0"
     inkscape:pagecheckerboard="0"
     inkscape:deskcolor="#d1d1d1"
     inkscape:zoom="1.11"
     inkscape:cx="319.81982"
     inkscape:cy="319.81982"
     inkscape:window-width="1920"
     inkscape:window-height="1008"
     inkscape:window-x="0"
     inkscape:window-y="0"
     inkscape:window-maximized="1"
     inkscape:current-layer="svg1" />
  <!--!Font Awesome Free 7.2.0 by @fontawesome - https://fontawesome.com License - https://fontawesome.com/license/free Copyright 2026 Fonticons, Inc.-->
  <path
     d="m 403.4,540.1 c 21.3,-16.1 49.9,-16.1 71.2,0 19,14.4 41.9,28.2 67.2,33.3 26.5,5.4 54.3,0.8 80.7,-19.1 10.6,-8 12.7,-23 4.7,-33.6 -8,-10.6 -23,-12.7 -33.6,-4.7 -14.9,11.2 -28.6,13.1 -42.3,10.3 -14.9,-3 -30.9,-11.9 -47.8,-24.6 -38.4,-29 -90.5,-29 -129,0 -24,18.1 -40.7,26.3 -54.5,26.3 -13.8,0 -30.5,-8.2 -54.5,-26.3 -38.4,-29 -90.5,-29 -129,0 -21.6,16.3 -41.3,25.8 -58.9,25.7 -9.6,-0.1 -19.9,-3 -31.2,-11.5 -10.6,-8 -25.6,-5.9 -33.6,4.7 -8,10.6 -5.8,25.7 4.8,33.7 19.1,14.4 39.4,21 59.8,21.1 33.9,0.2 64.3,-17.4 88.1,-35.3 21.3,-16.1 49.9,-16.1 71.2,0 24.2,18.3 52.3,35.9 83.4,35.9 31.1,0 59.1,-17.7 83.4,-35.9 z"
     id="path2" />
  <path
     id="path3"
     style="fill:#000000;stroke:#000000;stroke-width:48;stroke-linecap:round;stroke-linejoin:round;paint-order:stroke fill markers"
     d="m 43.425781,324 c 10.461525,27.56041 21.424152,56.43813 32.576172,78.13086 11.15202,21.69273 23.494251,38.83426 35.851557,43.39258 12.35732,4.55832 25.1993,-3.77126 37.96289,-9.65039 12.76359,-5.87913 25.44719,-9.30727 37.27539,-11.02149 32.98972,-4.78105 66.70226,14.00723 78.40821,22.84766 11.75167,8.86272 21.75375,15.35292 30.52148,19.66797 3.51718,0.6013 7.04549,0.96049 10.55078,1.02539 18.51371,0.34277 36.34236,-7.54151 52.11328,-16.62695 15.77092,-9.08545 29.48384,-19.37148 47.82617,-24.68555 18.34234,-5.31407 41.31206,-5.65642 59.6543,-0.51367 18.34225,5.14275 32.05644,15.77007 42.3418,20.39844 10.28536,4.62836 17.14245,3.25826 31.27734,-18.23633 C 553.92004,407.23393 575.33165,365.61698 596.74414,324 Z"
     sodipodi:nodetypes="cssssccsssssscc" />
  <path
     id="path4"
     style="fill:#000000;stroke:#000000;stroke-width:48;stroke-linecap:round;stroke-linejoin:round;paint-order:stroke fill markers"
     d="m 152.45611,130.96484 v 19.5586 h 85.43165 V 272.1875 H 153.53815 L 152.45611,150.52344 152.42303,324 H 253.0858 l -0.28203,-193.03516 z"
     sodipodi:nodetypes="cccccccccc" />
</svg>
