<?xml version="1.0" encoding="UTF-8" standalone="no"?>
<svg
   viewBox="0 0 640 640"
   version="1.1"
   id="svg1"
   sodipodi:docname="tile-bg-from.svg"
   inkscape:version="1.4.4 (unknown)"
   xmlns:inkscape="http://www.inkscape.org/namespaces/inkscape"
   xmlns:sodipodi="http://sodipodi.sourceforge.net/DTD/sodipodi-0.dtd"
   xmlns="http://www.w3.org/2000/svg"
   xmlns:svg="http://www.w3.org/2000/svg">
  <defs
     id="defs1" />
  <sodipodi:namedview
     id="namedview1"
     pagecolor="#ffffff"
     bordercolor="#666666"
     borderopacity="1.0"
     inkscape:showpageshadow="2"
     inkscape:pageopacity="0.0"
     inkscape:pagecheckerboard="0"
     inkscape:deskcolor="#d1d1d1"
     inkscape:zoom="0.62263349"
     inkscape:cx="-80.304064"
     inkscape:cy="451.30884"
     inkscape:window-width="1920"
     inkscape:window-height="1008"
     inkscape:window-x="0"
     inkscape:window-y="0"
     inkscape:window-maximized="1"
     inkscape:current-layer="svg1" />
  <!--!Font Awesome Free 7.2.0 by @fontawesome - https://fontawesome.com License - https://fontawesome.com/license/free Copyright 2026 Fonticons, Inc.-->
  <g
     id="g10118"
     transform="matrix(0,12.682044,12.687062,0,-12114.175,-2450.4185)"
     style="display:inline;fill:#000000;stroke-width:0.0788206">
    <path
       id="path8732"
       d="m 207.39138,974.64792 a 11.433096,11.428574 0 0 0 11.06046,8.57143 11.433096,11.428574 0 0 0 11.05488,-8.57143 z m 0.006,-5.71429 h 22.11534 a 11.433096,11.428574 0 0 0 -11.06045,-8.57143 11.433096,11.428574 0 0 0 -11.05488,8.57143 z"
       style="opacity:1;fill:#000000;fill-opacity:1;stroke:none;stroke-width:0.15764;stroke-miterlimit:4;stroke-dasharray:none;stroke-opacity:1"
       inkscape:connector-curvature="0" />
    <path
       sodipodi:nodetypes="ccccccccccccccc"
       inkscape:connector-curvature="0"
       id="path9389"
       transform="matrix(0,-1,1.0003957,0,137.99754,1052.3622)"
       d="m 52.589774,77.564453 v 5.714844 h 2.022316 v -5.714844 z m 4.378362,0 v 5.714844 h 3.537 v -5.714844 z m 6.180156,0 v 5.714844 H 70 v -5.714844 z"
       style="opacity:1;fill:#000000;fill-opacity:1;stroke:none;stroke-width:0.15764;stroke-miterlimit:4;stroke-dasharray:none;stroke-opacity:1" />
  </g>
</svg>
