<?xml version="1.0" encoding="UTF-8" standalone="no"?>
<svg
   viewBox="0 0 640 640"
   version="1.1"
   id="svg1"
   sodipodi:docname="tile-bg-bus.svg"
   inkscape:version="1.4.4 (unknown)"
   xmlns:inkscape="http://www.inkscape.org/namespaces/inkscape"
   xmlns:sodipodi="http://sodipodi.sourceforge.net/DTD/sodipodi-0.dtd"
   xmlns="http://www.w3.org/2000/svg"
   xmlns:svg="http://www.w3.org/2000/svg">
  <defs
     id="defs1" />
  <sodipodi:namedview
     id="namedview1"
     pagecolor="#ffffff"
     bordercolor="#666666"
     borderopacity="1.0"
     inkscape:showpageshadow="2"
     inkscape:pageopacity="0.0"
     inkscape:pagecheckerboard="0"
     inkscape:deskcolor="#d1d1d1"
     inkscape:zoom="1.25"
     inkscape:cx="320.4"
     inkscape:cy="320"
     inkscape:window-width="1920"
     inkscape:window-height="1008"
     inkscape:window-x="0"
     inkscape:window-y="0"
     inkscape:window-maximized="1"
     inkscape:current-layer="svg1" />
  <!--!Font Awesome Free 7.2.0 by @fontawesome - https://fontawesome.com License - https://fontawesome.com/license/free Copyright 2026 Fonticons, Inc.-->
  <path
     d="m 450,112 c 71.825,0 130,58.175 130,130 v 182 c 0,28.68124 -23.31876,52 -52,52 h -4.55 c -10.725,30.30624 -39.48751,52 -73.45,52 -33.96251,0 -62.80624,-21.69376 -73.45,-52 H 263.53124 c -10.725,30.30624 -39.56874,52 -73.45,52 -33.88124,0 -62.725,-21.69376 -73.45,-52 H 112 C 83.318749,476 60,452.68124 60,424 V 190 c 0,-43.0625 34.9375,-78 78,-78 z M 190,411 c -21.53124,0 -39,17.46876 -39,39 0,21.53124 17.46876,39 39,39 21.53124,0 39,-17.46876 39,-39 0,-21.53124 -17.46876,-39 -39,-39 z m 260,0 c -21.53124,0 -39,17.46876 -39,39 0,21.53124 17.46876,39 39,39 21.53124,0 39,-17.46876 39,-39 0,-21.53124 -17.46876,-39 -39,-39 z m 0,-247 c -14.38124,0 -26,11.61876 -26,26 v 156 c 0,14.38124 11.61876,26 26,26 h 52 c 14.38124,0 26,-11.61876 26,-26 V 242 c 0,-43.0625 -34.93751,-78 -78,-78 z M 261.5,294 H 346 c 14.38124,0 26,-11.61876 26,-26 v -78 c 0,-14.38124 -11.61876,-26 -26,-26 H 261.5 Z M 138,164 c -14.38124,0 -26,11.61876 -26,26 v 78 c 0,14.38124 11.61876,26 26,26 h 84.5 V 164 Z"
     id="path1"
     style="stroke-width:1" />
</svg>
